<?xml version="1.0" encoding="UTF-8"?>
<!DOCTYPE svg PUBLIC "-//W3C//DTD SVG 1.1//EN" "http://www.w3.org/Graphics/SVG/1.1/DTD/svg11.dtd">
<svg xmlns="http://www.w3.org/2000/svg" version="1.1" width="512px" height="512px" style="shape-rendering:geometricPrecision; text-rendering:geometricPrecision; image-rendering:optimizeQuality; fill-rule:evenodd; clip-rule:evenodd" xmlns:xlink="http://www.w3.org/1999/xlink">
<g><path style="opacity:0.935" fill="#000000" d="M 275.5,-0.5 C 295.5,-0.5 315.5,-0.5 335.5,-0.5C 336.801,0.639972 337.968,1.97331 339,3.5C 339.333,15.8333 339.667,28.1667 340,40.5C 406.432,75.9694 444.099,131.303 453,206.5C 456.861,249.864 448.194,290.53 427,328.5C 413.692,351.297 397.859,372.13 379.5,391C 371.333,392.167 367.833,388.667 369,380.5C 382.973,363.882 395.973,346.549 408,328.5C 438.524,277.978 445.524,224.311 429,167.5C 417.036,130.221 395.703,99.5548 365,75.5C 364.333,94.1667 364.333,112.833 365,131.5C 397.558,173.828 406.558,220.828 392,272.5C 375.006,320.827 342.173,352.994 293.5,369C 223.343,383.662 169.177,360.828 131,300.5C 110.947,262.485 106.947,222.819 119,181.5C 127.546,155.316 142.046,133.149 162.5,115C 171.167,113.337 175,116.837 174,125.5C 132.332,165.533 119.332,213.533 135,269.5C 138.093,277.788 141.76,285.788 146,293.5C 146.024,264.439 146.691,235.439 148,206.5C 148.833,205.667 149.667,204.833 150.5,204C 160.494,203.5 170.494,203.334 180.5,203.5C 180.333,192.162 180.5,180.828 181,169.5C 181.985,165.334 184.652,163.334 189,163.5C 192.274,163.301 194.607,164.634 196,167.5C 196.5,179.495 196.667,191.495 196.5,203.5C 201.5,203.5 206.5,203.5 211.5,203.5C 211.333,181.164 211.5,158.831 212,136.5C 214.541,131.931 218.375,130.431 223.5,132C 224.667,133.167 225.833,134.333 227,135.5C 227.5,158.164 227.667,180.831 227.5,203.5C 233.833,203.5 240.167,203.5 246.5,203.5C 246.5,167.833 246.5,132.167 246.5,96.5C 228.608,97.9084 211.608,102.575 195.5,110.5C 186.746,107.227 185.413,102.061 191.5,95C 208.807,86.2565 227.141,81.4232 246.5,80.5C 246.334,74.1579 246.5,67.8246 247,61.5C 247.406,58.5056 248.906,56.339 251.5,55C 258.158,54.5004 264.825,54.3337 271.5,54.5C 271.5,49.1667 271.5,43.8333 271.5,38.5C 204.007,35.001 149.841,60.001 109,113.5C 73.3922,165.818 64.3922,222.485 82,283.5C 88.1131,302.728 97.1131,320.394 109,336.5C 153.212,392.055 201.712,443.888 254.5,492C 255.167,492.667 255.833,492.667 256.5,492C 288.772,463.062 319.772,432.729 349.5,401C 353.628,398.89 357.461,399.39 361,402.5C 363,405.833 363,409.167 361,412.5C 327.934,446.401 294.101,479.401 259.5,511.5C 256.833,511.5 254.167,511.5 251.5,511.5C 203.768,468.269 158.935,422.269 117,373.5C 100.311,353.461 85.9772,331.794 74,308.5C 46.2425,237.66 52.9092,170.327 94,106.5C 137.868,46.6534 197.035,18.6534 271.5,22.5C 271.334,16.1579 271.5,9.82458 272,3.5C 273.032,1.97331 274.199,0.639972 275.5,-0.5 Z M 287.5,14.5 C 299.5,14.5 311.5,14.5 323.5,14.5C 323.5,27.8333 323.5,41.1667 323.5,54.5C 311.5,54.5 299.5,54.5 287.5,54.5C 287.5,41.1667 287.5,27.8333 287.5,14.5 Z M 262.5,70.5 C 291.167,70.5 319.833,70.5 348.5,70.5C 348.667,152.501 348.5,234.501 348,316.5C 325.042,341.561 296.542,355.228 262.5,357.5C 262.5,261.833 262.5,166.167 262.5,70.5 Z M 364.5,160.5 C 382.853,192.485 387.353,226.485 378,262.5C 375.034,273.429 370.701,283.762 365,293.5C 364.5,249.168 364.333,204.835 364.5,160.5 Z M 162.5,218.5 C 190.5,218.5 218.5,218.5 246.5,218.5C 246.5,264.833 246.5,311.167 246.5,357.5C 213.276,354.637 185.443,340.971 163,316.5C 162.5,283.835 162.333,251.168 162.5,218.5 Z"/></g>
<g><path style="opacity:0.915" fill="#000000" d="M 287.5,109.5 C 299.505,109.333 311.505,109.5 323.5,110C 325.333,110.5 326.5,111.667 327,113.5C 327.667,116.167 327.667,118.833 327,121.5C 326.5,123.333 325.333,124.5 323.5,125C 311.5,125.667 299.5,125.667 287.5,125C 284.484,123.471 283.151,120.971 283.5,117.5C 283.282,113.934 284.616,111.268 287.5,109.5 Z"/></g>
<g><path style="opacity:0.921" fill="#000000" d="M 289.5,167.5 C 301.243,167.064 312.91,167.564 324.5,169C 328.5,173.667 328.5,178.333 324.5,183C 311.833,183.667 299.167,183.667 286.5,183C 283.572,179.743 282.738,175.909 284,171.5C 285.5,169.531 287.333,168.198 289.5,167.5 Z"/></g>
<g><path style="opacity:0.918" fill="#000000" d="M 286.5,226.5 C 299.171,226.333 311.838,226.5 324.5,227C 327.428,230.257 328.262,234.091 327,238.5C 325.786,240.049 324.286,241.215 322.5,242C 311.167,242.667 299.833,242.667 288.5,242C 286.714,241.215 285.214,240.049 284,238.5C 282.773,233.938 283.607,229.938 286.5,226.5 Z"/></g>
<g><path style="opacity:0.897" fill="#000000" d="M 183.5,241.5 C 186.187,241.336 188.854,241.503 191.5,242C 193.333,242.5 194.5,243.667 195,245.5C 195.667,253.167 195.667,260.833 195,268.5C 191.491,272.613 187.324,273.446 182.5,271C 181.107,269.829 180.273,268.329 180,266.5C 179.333,259.833 179.333,253.167 180,246.5C 180.997,244.677 182.164,243.01 183.5,241.5 Z"/></g>
<g><path style="opacity:0.897" fill="#000000" d="M 216.5,241.5 C 219.187,241.336 221.854,241.503 224.5,242C 226.333,242.5 227.5,243.667 228,245.5C 228.667,253.167 228.667,260.833 228,268.5C 224.491,272.613 220.324,273.446 215.5,271C 214.107,269.829 213.273,268.329 213,266.5C 212.333,259.833 212.333,253.167 213,246.5C 213.997,244.677 215.164,243.01 216.5,241.5 Z"/></g>
<g><path style="opacity:0.915" fill="#000000" d="M 287.5,284.5 C 299.505,284.333 311.505,284.5 323.5,285C 325.333,285.5 326.5,286.667 327,288.5C 327.667,291.167 327.667,293.833 327,296.5C 326.5,298.333 325.333,299.5 323.5,300C 311.5,300.667 299.5,300.667 287.5,300C 284.484,298.471 283.151,295.971 283.5,292.5C 283.282,288.934 284.616,286.268 287.5,284.5 Z"/></g>
<g><path style="opacity:0.903" fill="#000000" d="M 184.5,295.5 C 188.909,294.618 192.409,295.952 195,299.5C 195.667,307.167 195.667,314.833 195,322.5C 190.7,327.446 186.033,327.779 181,323.5C 179.443,316.247 179.11,308.914 180,301.5C 180.599,298.746 182.099,296.746 184.5,295.5 Z"/></g>
<g><path style="opacity:0.903" fill="#000000" d="M 217.5,295.5 C 221.909,294.618 225.409,295.952 228,299.5C 228.667,307.167 228.667,314.833 228,322.5C 223.7,327.446 219.033,327.779 214,323.5C 212.443,316.247 212.11,308.914 213,301.5C 213.599,298.746 215.099,296.746 217.5,295.5 Z"/></g>
</svg>
