<?xml version="1.0" encoding="UTF-8"?>
<!DOCTYPE svg PUBLIC "-//W3C//DTD SVG 1.1//EN" "http://www.w3.org/Graphics/SVG/1.1/DTD/svg11.dtd">
<svg xmlns="http://www.w3.org/2000/svg" version="1.1" width="512px" height="512px" style="shape-rendering:geometricPrecision; text-rendering:geometricPrecision; image-rendering:optimizeQuality; fill-rule:evenodd; clip-rule:evenodd" xmlns:xlink="http://www.w3.org/1999/xlink">
<g><path style="opacity:0.965" fill="#000000" d="M 240.5,-0.5 C 250.5,-0.5 260.5,-0.5 270.5,-0.5C 329.795,12.1402 361.795,48.8068 366.5,109.5C 363.725,139.382 353.891,166.715 337,191.5C 327.634,205.556 317.301,218.89 306,231.5C 307.042,235.1 308.876,238.433 311.5,241.5C 330.158,242.666 348.824,242.833 367.5,242C 371.526,228.919 375.359,215.753 379,202.5C 401.533,180.966 424.366,159.799 447.5,139C 468.831,138.5 490.164,138.333 511.5,138.5C 511.5,160.167 511.5,181.833 511.5,203.5C 496.774,227.939 482.274,252.606 468,277.5C 467.667,306.833 467.333,336.167 467,365.5C 458.961,381.079 450.794,396.579 442.5,412C 450.889,445.055 458.889,478.222 466.5,511.5C 434.833,511.5 403.167,511.5 371.5,511.5C 365.815,489.426 359.815,467.426 353.5,445.5C 334.175,444.334 314.842,444.167 295.5,445C 287.667,451.5 279.833,458 272,464.5C 271.5,476.495 271.333,488.495 271.5,500.5C 247.831,500.667 224.164,500.5 200.5,500C 186.317,485.318 172.317,470.484 158.5,455.5C 126.505,454.667 94.5052,454.167 62.5,454C 41.632,432.965 20.632,412.132 -0.5,391.5C -0.5,346.833 -0.5,302.167 -0.5,257.5C 11.4651,246.035 23.2985,234.369 35,222.5C 35.4999,203.503 35.6666,184.503 35.5,165.5C 68.5017,165.333 101.502,165.5 134.5,166C 144.736,169.969 155.069,173.302 165.5,176C 140.051,135.227 138.551,93.7267 161,51.5C 179.841,22.4937 206.341,5.16035 240.5,-0.5 Z M 254.5,29.5 C 303.119,33.9521 330.119,60.4521 335.5,109C 332.876,132.084 325.043,153.25 312,172.5C 295.762,196.588 276.929,218.588 255.5,238.5C 232.557,217.395 212.724,193.728 196,167.5C 184.686,149.723 177.853,130.39 175.5,109.5C 180.467,61.5342 206.8,34.8676 254.5,29.5 Z M 250.5,95.5 C 264.652,94.1515 270.819,100.485 269,114.5C 263.593,124.059 256.093,126.226 246.5,121C 238.279,111.04 239.613,102.54 250.5,95.5 Z M 460.5,169.5 C 467.167,169.5 473.833,169.5 480.5,169.5C 480.666,177.84 480.5,186.173 480,194.5C 465.667,219.5 451.333,244.5 437,269.5C 436.667,298.833 436.333,328.167 436,357.5C 427.167,374.5 418.333,391.5 409.5,408.5C 415.755,432.777 421.755,457.11 427.5,481.5C 416.833,481.5 406.167,481.5 395.5,481.5C 389.5,458.833 383.5,436.167 377.5,413.5C 346.165,413.333 314.832,413.5 283.5,414C 269.626,426.21 255.459,438.043 241,449.5C 240.5,456.158 240.334,462.825 240.5,469.5C 231.827,469.666 223.16,469.5 214.5,469C 200.167,454 185.833,439 171.5,424C 139.5,423.667 107.5,423.333 75.5,423C 60.6667,408.167 45.8333,393.333 31,378.5C 30.3333,342.833 30.3333,307.167 31,271.5C 42.6667,259.833 54.3333,248.167 66,236.5C 66.4999,223.171 66.6666,209.837 66.5,196.5C 87.1694,196.333 107.836,196.5 128.5,197C 150.167,204.667 171.833,212.333 193.5,220C 207.445,234.614 221.445,249.28 235.5,264C 241.73,270.066 248.396,275.566 255.5,280.5C 265.128,272.874 274.461,264.874 283.5,256.5C 287.622,261.911 291.622,267.411 295.5,273C 327.505,273.833 359.505,273.667 391.5,272.5C 396.513,254.782 401.679,237.116 407,219.5C 425.03,202.967 442.864,186.3 460.5,169.5 Z"/></g>
<g><path style="opacity:0.962" fill="#000000" d="M 245.5,64.5 C 278.399,61.9344 297.065,76.9344 301.5,109.5C 296.962,142.255 278.296,157.088 245.5,154C 218.688,145.545 207.188,127.379 211,99.5C 216.016,81.3183 227.516,69.6517 245.5,64.5 Z M 250.5,95.5 C 239.613,102.54 238.279,111.04 246.5,121C 256.093,126.226 263.593,124.059 269,114.5C 270.819,100.485 264.652,94.1515 250.5,95.5 Z"/></g>
</svg>
